# xmcd
#
# Track frame offsets:
#	150
#	14149
#	30746
#	43923
#	61685
#	80317
#	94365
#	105849
#	117930
#	128953
#	141442
#	159926
#
# Disc length: 2297 seconds
#
# Revision: 0
# Processed by: cddbd v1.5.1PL0 Copyright (c) Steve Scherf et al.
# Submitted via: dBpowerAMP V4.0
#
DISCID=9c08f70c
DTITLE=Various Artist - O Jasiu
DYEAR=1900
DGENRE=Undefined
TTITLE0=O Jasiu 1
TTITLE1=O Jasiu 2
TTITLE2=O Jasiu 3
TTITLE3=O Jasiu 4
TTITLE4=O Jasiu 5
TTITLE5=O Jasiu 6
TTITLE6=O Jasiu 7
TTITLE7=O Jasiu 8
TTITLE8=O Jasiu 9
TTITLE9=O Jasiu 10
TTITLE10=O Jasiu 11
TTITLE11=O Jasiu 12
EXTD=
EXTT0=
EXTT1=
EXTT2=
EXTT3=
EXTT4=
EXTT5=
EXTT6=
EXTT7=
EXTT8=
EXTT9=
EXTT10=
EXTT11=
PLAYORDER=
